<mxfile host="app.diagrams.net" modified="2025-05-08T08:31:35.291Z" agent="Mozilla/5.0 (Macintosh; Intel Mac OS X 10_15_7) AppleWebKit/537.36 (KHTML, like Gecko) Chrome/135.0.0.0 Safari/537.36" version="24.6.5" etag="ZmH4xyTOdk1reoTovCTo" type="github">
  <diagram name="Page-1" id="B5W1eFqwuF4CL2SzeGby">
    <mxGraphModel>
      <root>
        <mxCell id="0" />
        <mxCell id="1" parent="0" />
      </root>
    </mxGraphModel>
  </diagram>
</mxfile>
